<svg xmlns="http://www.w3.org/2000/svg" width="208" height="265" fill="none" viewBox="0 0 208 265">
  <path fill="#ffffff" fill-opacity=".5" stroke="#000000" stroke-opacity=".5" stroke-width="7" style="fill:hsla(232, 67%, 49%, 0.75);stroke:hsla(232, 67%, 49%, 0.75)" d="m53.418 214.706-.01-.011C21.449 177.952 5.002 139.701 5 104.111a99.281 99.281 0 0 1 29.033-70.05A99.063 99.063 0 0 1 104 5a99.064 99.064 0 0 1 69.967 29.06A99.284 99.284 0 0 1 203 104.115c-.002 35.587-16.494 73.838-48.411 110.584l-.005.005-.005.006a295.51 295.51 0 0 1-48.019 44.513 4.446 4.446 0 0 1-5.027-.001 295.56 295.56 0 0 1-48.115-44.515Z"/>
  <path fill="#ffffff" fill-opacity=".75" stroke="#000000" stroke-opacity=".5" stroke-width="7" style="fill:hsla(232, 67%, 49%, 0.75);stroke:hsla(232, 67%, 49%, 0.75)" d="M48.272 159.996c14.918 14.916 34.768 23.139 55.863 23.139s40.945-8.223 55.861-23.139c14.916-14.916 23.139-34.766 23.139-55.861s-8.222-40.946-23.139-55.863c-14.916-14.916-34.766-23.137-55.861-23.137s-40.945 8.22-55.863 23.137C33.356 63.19 25.135 83.04 25.135 104.135s8.22 40.944 23.137 55.861Zm42.244-71.802-38.832-22.42C62.229 51.395 78.524 41.5 97.14 39.499v44.86a20.978 20.978 0 0 0-6.624 3.836Zm13.619 22.927c-3.849 0-6.986-3.137-6.986-6.986 0-3.85 3.137-6.986 6.986-6.986 3.849 0 6.986 3.136 6.986 6.986 0 3.849-3.137 6.986-6.986 6.986Zm-20.624-3.157-38.846 22.427a64.623 64.623 0 0 1-5.54-26.256 64.63 64.63 0 0 1 5.54-26.258l38.846 22.427a20.863 20.863 0 0 0 0 7.66Zm20.624 61.18c-21.501 0-40.603-10.495-52.451-26.649l38.832-22.42a20.97 20.97 0 0 0 6.623 3.836v24.032a6.994 6.994 0 0 0 6.996 6.995 6.994 6.994 0 0 0 6.995-6.995v-24.032a20.991 20.991 0 0 0 6.623-3.836l38.832 22.42c-11.847 16.154-30.949 26.649-52.45 26.649Zm20.623-68.839 38.846-22.428a64.618 64.618 0 0 1 5.54 26.258 64.611 64.611 0 0 1-5.54 26.256l-38.846-22.428a20.892 20.892 0 0 0 0-7.658ZM111.13 84.358v-44.86c18.614 2 34.909 11.897 45.455 26.277l-38.832 22.419a20.98 20.98 0 0 0-6.623-3.836Z"/>
</svg>
